<?xml version="1.0" standalone="no"?><!DOCTYPE svg PUBLIC "-//W3C//DTD SVG 1.1//EN" "http://www.w3.org/Graphics/SVG/1.1/DTD/svg11.dtd"><svg t="1531200408189" class="icon" style="" viewBox="0 0 1024 1024" version="1.1" xmlns="http://www.w3.org/2000/svg" p-id="2105" xmlns:xlink="http://www.w3.org/1999/xlink" width="200" height="200"><defs><style type="text/css"></style></defs><path d="M896 0 128 0l0 42.666667 106.666667 0 0 234.645333C234.666667 389.333333 389.653333 474.389333 469.333333 512c-79.68 37.610667-234.666667 122.666667-234.666667 234.688L234.666667 981.333333 128 981.333333l0 42.666667 768 0 0-42.666667-106.666667 0L789.333333 746.688C789.333333 634.666667 634.346667 549.610667 554.666667 512c79.68-37.610667 234.666667-122.624 234.666667-234.666667l0-234.666667 106.666667 0L896 0zM746.666667 746.688 746.666667 981.333333 277.333333 981.333333 277.333333 746.688c0-93.589333 160.384-182.592 234.666667-213.354667C586.282667 564.117333 746.666667 653.12 746.666667 746.688zM746.666667 277.312c0 93.589333-160.426667 182.592-234.666667 213.354667-74.282667-30.784-234.666667-119.786667-234.666667-213.354667L277.333333 42.666667l469.333333 0L746.666667 277.312z" p-id="2106" fill="#ff0000"></path></svg>